Coordinates
version=1
nRows=13
nColumns=40
inDegrees=yes

Units are S.I. units (second, meters, Newtons, ...)
Angles are in degrees.

endheader
time	pelvis_tilt	pelvis_list	pelvis_rotation	pelvis_tx	pelvis_ty	pelvis_tz	hip_flexion_r	hip_adduction_r	hip_rotation_r	knee_angle_r	knee_angle_r_beta	ankle_angle_r	subtalar_angle_r	mtp_angle_r	hip_flexion_l	hip_adduction_l	hip_rotation_l	knee_angle_l	knee_angle_l_beta	ankle_angle_l	subtalar_angle_l	mtp_angle_l	lumbar_extension	lumbar_bending	lumbar_rotation	arm_flex_r	arm_add_r	arm_rot_r	elbow_flex_r	pro_sup_r	wrist_flex_r	wrist_dev_r	arm_flex_l	arm_add_l	arm_rot_l	elbow_flex_l	pro_sup_l	wrist_flex_l	wrist_dev_l
     11.31500000	     -3.19452873	     -5.95598159	     -2.47964726	      1.03645132	      0.91926870	      0.46960696	     21.90044277	      2.04561509	    -13.88531064	     21.87140292	     21.87140292	      4.79527055	     -4.49046654	     -4.35209814	      4.64115933	    -11.55176449	     -6.85859024	     42.28591418	     42.28591418	     11.61540813	    -17.01515187	     -8.54631937	    -11.38374482	      7.20507487	      3.73254866	    -16.82952140	    -12.28929492	    -13.88114636	     23.22552553	     47.02640409	      0.00000000	      0.00000000	     20.46358832	    -16.72219700	    -11.18690433	    104.15681742	     48.30898106	      0.00000000	      0.00000000
     11.32657143	     -3.25809420	     -6.12635953	     -2.05703884	      1.03632496	      0.92061823	      0.47170673	     21.05505132	      2.31259440	    -14.36823435	     21.28606435	     21.28606435	      5.22835032	     -4.17422496	     -4.42407426	      6.88719590	    -12.19973858	     -5.74733066	     46.35246474	     46.35246474	      9.61988450	    -17.78816880	     -7.89519299	    -11.40858768	      7.24178111	      3.81221089	    -15.68035351	    -11.92732745	    -13.59854308	     23.79503782	     46.98295516	      0.00000000	      0.00000000	     19.52076913	    -16.02725831	    -10.88171021	    104.21695182	     48.29145940	      0.00000000	      0.00000000
     11.33814286	     -3.39521760	     -6.09739776	     -1.59650854	      1.03592690	      0.92174488	      0.47333931	     20.33152658	      2.28833087	    -15.00938052	     20.75008594	     20.75008594	      5.62296806	     -3.49752556	     -4.78655334	      9.56624810	    -12.30058449	     -4.16635252	     50.83011162	     50.83011162	     10.15130179	    -17.74040940	     -0.66437003	    -11.38773058	      7.09832424	      3.19457642	    -14.42988107	    -11.97432248	    -11.33543337	     25.35087826	     46.70773991	      0.00000000	      0.00000000	     17.71435765	    -15.66562516	    -11.42041923	    105.02283156	     48.38859191	      0.00000000	      0.00000000
     11.34971429	     -3.40446615	     -6.26109343	     -1.13913393	      1.03546125	      0.92284474	      0.47518603	     19.48017312	      2.56638516	    -15.41956293	     20.19669875	     20.19669875	      5.97255644	     -3.34296392	     -4.81387965	     11.84473646	    -12.79598192	     -3.08310939	     54.40654111	     54.40654111	      8.39116701	    -18.27182076	     -0.05176894	    -11.49214680	      7.10547072	      3.37961236	    -13.05636192	    -11.67792945	    -11.04257821	     25.96632489	     46.66683726	      0.00000000	      0.00000000	     16.86147025	    -14.88506509	    -10.87236121	    104.59847454	     48.34564036	      0.00000000	      0.00000000
     11.36128571	     -3.53712834	     -6.38359538	     -0.67450327	      1.03486339	      0.92363571	      0.47682190	     18.74120342	      2.79129536	    -15.87100999	     19.57040601	     19.57040601	      6.28341824	     -3.09415122	     -4.88644920	     14.32563138	    -13.13791513	     -1.95233969	     57.75307967	     57.75307967	      7.33907564	    -18.56852730	      1.49398035	    -11.41336281	      7.12121559	      3.47175968	    -11.73039525	    -11.52327723	    -10.67956793	     26.79194062	     46.61024130	      0.00000000	      0.00000000	     15.73388316	    -14.37361566	    -10.33446050	    103.90651805	     48.29929711	      0.00000000	      0.00000000
     11.37285714	     -3.52811004	     -6.31076561	     -0.25361426	      1.03405690	      0.92456158	      0.47818093	     17.98217374	      2.77561876	    -16.24796373	     19.16273223	     19.16273223	      6.47797030	     -2.83010141	     -5.41033942	     16.85571706	    -12.96646526	     -0.67499433	     61.17316245	     61.17316245	      9.05949979	    -18.39617643	      9.95572656	    -11.59424274	      6.88479844	      3.50437360	    -11.02709124	    -12.12763005	     -5.48393989	     29.97648843	     46.06623093	      0.00000000	      0.00000000	     14.63112499	    -13.86500889	     -9.71222722	    102.95132262	     48.39140448	      0.00000000	      0.00000000
     11.38442857	     -3.49304875	     -6.39093830	      0.19482119	      1.03334625	      0.92537972	      0.47962497	     17.19381151	      2.95953497	    -16.54993847	     18.75667084	     18.75667084	      6.76934292	     -2.77275094	     -5.40915725	     19.00939435	    -13.20869035	      0.15059800	     63.50738000	     63.50738000	      8.20755479	    -18.75650614	     10.21855023	    -11.74161972	      6.80826028	      3.64364253	     -9.23936770	    -11.97121769	     -5.45793920	     30.84492130	     46.04271700	      0.00000000	      0.00000000	     13.49208608	    -13.05965385	     -9.08487563	    102.15479957	     48.32906962	      0.00000000	      0.00000000
     11.39600000	     -3.51759124	     -6.37844389	      0.60002884	      1.03249095	      0.92608622	      0.48097810	     16.42662833	      3.07504794	    -16.80124695	     18.22776930	     18.22776930	      7.00664386	     -2.66943172	     -5.61385626	     21.30590147	    -13.20669474	      0.99684840	     65.62246415	     65.62246415	      8.99728461	    -18.84705188	     13.80715076	    -11.87975574	      6.63658217	      3.82057407	     -7.98886799	    -11.97949083	     -5.29546414	     32.95326345	     45.95268015	      0.00000000	      0.00000000	     12.46466774	    -12.69369855	     -8.57047528	    100.09647967	     48.28024038	      0.00000000	      0.00000000
     11.40757143	     -3.53519619	     -6.45575095	      1.02968572	      1.03163126	      0.92673650	      0.48227637	     15.67319558	      3.29500594	    -17.00508997	     17.73619021	     17.73619021	      7.27733092	     -2.66603764	     -5.61324758	     23.46051277	    -13.42113664	      1.58380069	     67.04166414	     67.04166414	      8.93108157	    -19.01512185	     14.25713328	    -12.02731610	      6.53815859	      3.85188986	     -6.15861409	    -11.92401100	     -5.27901901	     34.20731559	     45.91385026	      0.00000000	      0.00000000	     11.17536474	    -12.27925753	     -7.92119694	     98.62989538	     48.21107972	      0.00000000	      0.00000000
     11.41914286	     -3.49019002	     -6.44473650	      1.43067398	      1.03078834	      0.92741282	      0.48338581	     14.87332365	      3.42411699	    -17.14800319	     17.26865292	     17.26865292	      7.49540845	     -2.77641212	     -5.74145709	     25.50928886	    -13.41007046	      2.17499095	     68.07277407	     68.07277407	      9.81597801	    -19.11090716	     16.64996520	    -12.20610568	      6.37563089	      4.40651047	     -5.09939393	    -12.11252078	     -5.01309707	     37.07303920	     45.78817438	      0.00000000	      0.00000000	     10.47913082	    -11.53653664	     -7.06753374	     95.83818204	     48.13207840	      0.00000000	      0.00000000
     11.43071429	     -3.45472348	     -6.42160785	      1.80405049	      1.02992005	      0.92803047	      0.48440652	     14.13176255	      3.52713962	    -17.27749131	     16.90994549	     16.90994549	      7.83061711	     -2.82070974	     -5.75114133	     27.36791082	    -13.46271383	      2.50739936	     68.39050397	     68.39050397	     10.03191093	    -19.21891660	     16.64817284	    -12.42986936	      6.14335943	      4.53545360	     -2.97106201	    -12.14053045	     -5.06509659	     38.24985082	     45.75940936	      0.00000000	      0.00000000	      9.06915191	    -10.92821033	     -6.41873960	     94.48027381	     48.05850606	      0.00000000	      0.00000000
     11.44228571	     -3.48630579	     -6.49349590	      2.31002121	      1.02905681	      0.92857618	      0.48518550	     13.31795270	      3.76289899	    -17.49196508	     16.23729701	     16.23729701	      8.05028423	     -2.89166083	     -5.65473808	     29.29630594	    -13.48381199	      2.97153426	     68.26877456	     68.26877456	     10.42982535	    -19.29455009	     17.04630064	    -12.47788762	      6.09647067	      4.02754899	     -0.75897783	    -12.07151428	     -5.11886038	     40.18324591	     45.70106996	      0.00000000	      0.00000000	      7.57097549	    -10.98935346	     -6.00715046	     91.53782472	     47.97161494	      0.00000000	      0.00000000
     11.45385714	     -3.43323270	     -6.47311140	      2.74590378	      1.02808356	      0.92914552	      0.48576312	     12.51227246	      3.88474798	    -17.60691126	     15.74863312	     15.74863312	      8.26168591	     -3.08306372	     -5.80230010	     31.02234213	    -13.30391096	      3.36621352	     67.73481680	     67.73481680	     11.44496104	    -19.32035398	     19.24661681	    -12.66672996	      5.98047075	      5.11902815	     -0.72325901	    -12.79122421	     -4.73097040	     45.82494397	     45.46915082	      0.00000000	      0.00000000	      7.74713335	    -10.17890232	     -4.49067159	     86.54084751	     47.82389769	      0.00000000	      0.00000000
